<mxfile host="65bd71144e">
    <diagram id="9aRRMCPUvefPO5eQSC6F" name="페이지-1">
        <mxGraphModel dx="753" dy="574" grid="1" gridSize="10" guides="1" tooltips="1" connect="1" arrows="1" fold="1" page="1" pageScale="1" pageWidth="1169" pageHeight="827" math="0" shadow="0">
            <root>
                <mxCell id="0"/>
                <mxCell id="1" parent="0"/>
                <mxCell id="dKKX5aDjw6KxdLSWSVDR-50" value="" style="rounded=0;whiteSpace=wrap;html=1;strokeColor=#FF3333;strokeWidth=3;" parent="1" vertex="1">
                    <mxGeometry x="210" y="90" width="766" height="450" as="geometry"/>
                </mxCell>
                <mxCell id="dKKX5aDjw6KxdLSWSVDR-11" style="edgeStyle=orthogonalEdgeStyle;rounded=0;orthogonalLoop=1;jettySize=auto;html=1;entryX=0;entryY=0.5;entryDx=0;entryDy=0;" parent="1" source="dKKX5aDjw6KxdLSWSVDR-1" target="dKKX5aDjw6KxdLSWSVDR-2" edge="1">
                    <mxGeometry relative="1" as="geometry"/>
                </mxCell>
                <mxCell id="dKKX5aDjw6KxdLSWSVDR-1" value="&lt;font style=&quot;font-size: 18px&quot;&gt;ClockDivider&lt;/font&gt;" style="rounded=0;whiteSpace=wrap;html=1;" parent="1" vertex="1">
                    <mxGeometry x="292" y="190" width="120" height="60" as="geometry"/>
                </mxCell>
                <mxCell id="dKKX5aDjw6KxdLSWSVDR-12" style="edgeStyle=orthogonalEdgeStyle;rounded=0;orthogonalLoop=1;jettySize=auto;html=1;entryX=0;entryY=0.5;entryDx=0;entryDy=0;" parent="1" source="dKKX5aDjw6KxdLSWSVDR-2" target="dKKX5aDjw6KxdLSWSVDR-3" edge="1">
                    <mxGeometry relative="1" as="geometry"/>
                </mxCell>
                <mxCell id="dKKX5aDjw6KxdLSWSVDR-2" value="&lt;font style=&quot;font-size: 18px&quot;&gt;Counter&lt;/font&gt;" style="rounded=0;whiteSpace=wrap;html=1;" parent="1" vertex="1">
                    <mxGeometry x="492" y="195" width="110" height="50" as="geometry"/>
                </mxCell>
                <mxCell id="dKKX5aDjw6KxdLSWSVDR-3" value="&lt;font style=&quot;font-size: 15px&quot;&gt;Comparator&lt;/font&gt;" style="rounded=0;whiteSpace=wrap;html=1;" parent="1" vertex="1">
                    <mxGeometry x="702" y="140" width="90" height="160" as="geometry"/>
                </mxCell>
                <mxCell id="dKKX5aDjw6KxdLSWSVDR-49" style="edgeStyle=orthogonalEdgeStyle;rounded=0;orthogonalLoop=1;jettySize=auto;html=1;startArrow=none;startFill=0;endArrow=classic;endFill=1;" parent="1" source="dKKX5aDjw6KxdLSWSVDR-6" edge="1">
                    <mxGeometry relative="1" as="geometry">
                        <mxPoint x="1052" y="225" as="targetPoint"/>
                    </mxGeometry>
                </mxCell>
                <mxCell id="dKKX5aDjw6KxdLSWSVDR-6" value="&lt;font style=&quot;font-size: 18px&quot;&gt;MUX&lt;/font&gt;" style="shape=trapezoid;perimeter=trapezoidPerimeter;whiteSpace=wrap;html=1;fixedSize=1;rotation=90;" parent="1" vertex="1">
                    <mxGeometry x="817" y="195" width="220" height="60" as="geometry"/>
                </mxCell>
                <mxCell id="dKKX5aDjw6KxdLSWSVDR-10" style="edgeStyle=orthogonalEdgeStyle;rounded=0;orthogonalLoop=1;jettySize=auto;html=1;entryX=0;entryY=0.5;entryDx=0;entryDy=0;" parent="1" source="dKKX5aDjw6KxdLSWSVDR-7" target="dKKX5aDjw6KxdLSWSVDR-8" edge="1">
                    <mxGeometry relative="1" as="geometry"/>
                </mxCell>
                <mxCell id="dKKX5aDjw6KxdLSWSVDR-43" style="edgeStyle=orthogonalEdgeStyle;rounded=0;orthogonalLoop=1;jettySize=auto;html=1;exitX=0;exitY=0.25;exitDx=0;exitDy=0;startArrow=classic;startFill=1;endArrow=oval;endFill=1;" parent="1" source="dKKX5aDjw6KxdLSWSVDR-7" edge="1">
                    <mxGeometry relative="1" as="geometry">
                        <mxPoint x="242" y="300" as="targetPoint"/>
                    </mxGeometry>
                </mxCell>
                <mxCell id="dKKX5aDjw6KxdLSWSVDR-47" style="edgeStyle=orthogonalEdgeStyle;rounded=0;orthogonalLoop=1;jettySize=auto;html=1;exitX=0;exitY=0.75;exitDx=0;exitDy=0;startArrow=classic;startFill=1;endArrow=oval;endFill=1;" parent="1" edge="1">
                    <mxGeometry relative="1" as="geometry">
                        <mxPoint x="262" y="356" as="targetPoint"/>
                        <mxPoint x="372" y="441" as="sourcePoint"/>
                    </mxGeometry>
                </mxCell>
                <mxCell id="dKKX5aDjw6KxdLSWSVDR-7" value="&lt;font style=&quot;font-size: 18px&quot;&gt;Button&lt;br&gt;Controller&lt;/font&gt;" style="rounded=0;whiteSpace=wrap;html=1;" parent="1" vertex="1">
                    <mxGeometry x="372" y="400" width="120" height="60" as="geometry"/>
                </mxCell>
                <mxCell id="dKKX5aDjw6KxdLSWSVDR-9" style="edgeStyle=orthogonalEdgeStyle;rounded=0;orthogonalLoop=1;jettySize=auto;html=1;exitX=1;exitY=0.5;exitDx=0;exitDy=0;entryX=1;entryY=0.5;entryDx=0;entryDy=0;" parent="1" source="dKKX5aDjw6KxdLSWSVDR-8" target="dKKX5aDjw6KxdLSWSVDR-6" edge="1">
                    <mxGeometry relative="1" as="geometry"/>
                </mxCell>
                <mxCell id="dKKX5aDjw6KxdLSWSVDR-37" style="edgeStyle=orthogonalEdgeStyle;rounded=0;orthogonalLoop=1;jettySize=auto;html=1;exitX=0.25;exitY=0;exitDx=0;exitDy=0;startArrow=classic;startFill=1;endArrow=oval;endFill=1;" parent="1" source="dKKX5aDjw6KxdLSWSVDR-8" edge="1">
                    <mxGeometry relative="1" as="geometry">
                        <mxPoint x="242" y="240" as="targetPoint"/>
                        <Array as="points">
                            <mxPoint x="647" y="300"/>
                            <mxPoint x="242" y="300"/>
                        </Array>
                    </mxGeometry>
                </mxCell>
                <mxCell id="dKKX5aDjw6KxdLSWSVDR-41" style="edgeStyle=orthogonalEdgeStyle;rounded=0;orthogonalLoop=1;jettySize=auto;html=1;startArrow=classic;startFill=1;endArrow=oval;endFill=1;" parent="1" source="dKKX5aDjw6KxdLSWSVDR-8" edge="1">
                    <mxGeometry relative="1" as="geometry">
                        <mxPoint x="262" y="209.9999999999999" as="targetPoint"/>
                        <Array as="points">
                            <mxPoint x="677" y="270"/>
                            <mxPoint x="262" y="270"/>
                        </Array>
                    </mxGeometry>
                </mxCell>
                <mxCell id="dKKX5aDjw6KxdLSWSVDR-8" value="&lt;font style=&quot;font-size: 18px&quot;&gt;FSM_Lignt&lt;/font&gt;" style="rounded=0;whiteSpace=wrap;html=1;" parent="1" vertex="1">
                    <mxGeometry x="617" y="400" width="120" height="60" as="geometry"/>
                </mxCell>
                <mxCell id="dKKX5aDjw6KxdLSWSVDR-13" value="" style="endArrow=classic;html=1;exitX=1.002;exitY=0.128;exitDx=0;exitDy=0;exitPerimeter=0;entryX=0.209;entryY=1.005;entryDx=0;entryDy=0;entryPerimeter=0;endFill=1;" parent="1" source="dKKX5aDjw6KxdLSWSVDR-3" target="dKKX5aDjw6KxdLSWSVDR-6" edge="1">
                    <mxGeometry width="50" height="50" relative="1" as="geometry">
                        <mxPoint x="817" y="180" as="sourcePoint"/>
                        <mxPoint x="892" y="160" as="targetPoint"/>
                    </mxGeometry>
                </mxCell>
                <mxCell id="dKKX5aDjw6KxdLSWSVDR-17" value="" style="endArrow=classic;html=1;exitX=1.002;exitY=0.128;exitDx=0;exitDy=0;exitPerimeter=0;entryX=0.209;entryY=1.005;entryDx=0;entryDy=0;entryPerimeter=0;endFill=1;" parent="1" edge="1">
                    <mxGeometry width="50" height="50" relative="1" as="geometry">
                        <mxPoint x="792.0000000000001" y="189.9999999999999" as="sourcePoint"/>
                        <mxPoint x="896.5200000000001" y="190.5000000000001" as="targetPoint"/>
                    </mxGeometry>
                </mxCell>
                <mxCell id="dKKX5aDjw6KxdLSWSVDR-18" value="" style="endArrow=classic;html=1;exitX=1.002;exitY=0.128;exitDx=0;exitDy=0;exitPerimeter=0;entryX=0.209;entryY=1.005;entryDx=0;entryDy=0;entryPerimeter=0;endFill=1;" parent="1" edge="1">
                    <mxGeometry width="50" height="50" relative="1" as="geometry">
                        <mxPoint x="792" y="219.70999999999987" as="sourcePoint"/>
                        <mxPoint x="896.52" y="220.2100000000001" as="targetPoint"/>
                    </mxGeometry>
                </mxCell>
                <mxCell id="dKKX5aDjw6KxdLSWSVDR-19" value="" style="endArrow=classic;html=1;exitX=1.002;exitY=0.128;exitDx=0;exitDy=0;exitPerimeter=0;entryX=0.209;entryY=1.005;entryDx=0;entryDy=0;entryPerimeter=0;endFill=1;" parent="1" edge="1">
                    <mxGeometry width="50" height="50" relative="1" as="geometry">
                        <mxPoint x="792" y="249.99999999999983" as="sourcePoint"/>
                        <mxPoint x="896.52" y="250.50000000000006" as="targetPoint"/>
                    </mxGeometry>
                </mxCell>
                <mxCell id="dKKX5aDjw6KxdLSWSVDR-20" value="" style="endArrow=classic;html=1;exitX=1.002;exitY=0.128;exitDx=0;exitDy=0;exitPerimeter=0;entryX=0.209;entryY=1.005;entryDx=0;entryDy=0;entryPerimeter=0;endFill=1;" parent="1" edge="1">
                    <mxGeometry width="50" height="50" relative="1" as="geometry">
                        <mxPoint x="792" y="279.9999999999998" as="sourcePoint"/>
                        <mxPoint x="896.52" y="280.5" as="targetPoint"/>
                    </mxGeometry>
                </mxCell>
                <mxCell id="dKKX5aDjw6KxdLSWSVDR-21" value="" style="endArrow=classic;html=1;entryX=0;entryY=0.5;entryDx=0;entryDy=0;" parent="1" source="dKKX5aDjw6KxdLSWSVDR-22" edge="1">
                    <mxGeometry width="50" height="50" relative="1" as="geometry">
                        <mxPoint x="222" y="209" as="sourcePoint"/>
                        <mxPoint x="292" y="209" as="targetPoint"/>
                    </mxGeometry>
                </mxCell>
                <mxCell id="dKKX5aDjw6KxdLSWSVDR-22" value="&lt;font style=&quot;font-size: 15px&quot;&gt;clk&lt;br&gt;100MHz&lt;/font&gt;" style="text;html=1;strokeColor=none;fillColor=none;align=center;verticalAlign=middle;whiteSpace=wrap;rounded=0;" parent="1" vertex="1">
                    <mxGeometry x="121" y="189" width="70" height="42" as="geometry"/>
                </mxCell>
                <mxCell id="dKKX5aDjw6KxdLSWSVDR-23" value="" style="endArrow=classic;html=1;entryX=-0.019;entryY=0.846;entryDx=0;entryDy=0;entryPerimeter=0;exitX=1;exitY=0.5;exitDx=0;exitDy=0;" parent="1" source="dKKX5aDjw6KxdLSWSVDR-24" edge="1">
                    <mxGeometry width="50" height="50" relative="1" as="geometry">
                        <mxPoint x="222" y="241" as="sourcePoint"/>
                        <mxPoint x="291.72" y="240.76" as="targetPoint"/>
                    </mxGeometry>
                </mxCell>
                <mxCell id="dKKX5aDjw6KxdLSWSVDR-24" value="&lt;font style=&quot;font-size: 15px&quot;&gt;reset&lt;/font&gt;" style="text;html=1;strokeColor=none;fillColor=none;align=center;verticalAlign=middle;whiteSpace=wrap;rounded=0;" parent="1" vertex="1">
                    <mxGeometry x="131" y="230" width="50" height="20" as="geometry"/>
                </mxCell>
                <mxCell id="dKKX5aDjw6KxdLSWSVDR-28" style="edgeStyle=orthogonalEdgeStyle;rounded=0;orthogonalLoop=1;jettySize=auto;html=1;entryX=0;entryY=0.5;entryDx=0;entryDy=0;endArrow=classic;endFill=1;" parent="1" source="dKKX5aDjw6KxdLSWSVDR-25" target="dKKX5aDjw6KxdLSWSVDR-7" edge="1">
                    <mxGeometry relative="1" as="geometry"/>
                </mxCell>
                <mxCell id="dKKX5aDjw6KxdLSWSVDR-25" value="[2:0] button" style="text;html=1;strokeColor=none;fillColor=none;align=center;verticalAlign=middle;whiteSpace=wrap;rounded=0;" parent="1" vertex="1">
                    <mxGeometry x="118" y="420" width="64" height="20" as="geometry"/>
                </mxCell>
                <mxCell id="dKKX5aDjw6KxdLSWSVDR-32" style="edgeStyle=orthogonalEdgeStyle;rounded=0;orthogonalLoop=1;jettySize=auto;html=1;exitX=0;exitY=0.5;exitDx=0;exitDy=0;endArrow=none;endFill=0;startArrow=classic;startFill=1;" parent="1" source="dKKX5aDjw6KxdLSWSVDR-26" edge="1">
                    <mxGeometry relative="1" as="geometry">
                        <mxPoint x="222" y="340" as="targetPoint"/>
                    </mxGeometry>
                </mxCell>
                <mxCell id="dKKX5aDjw6KxdLSWSVDR-35" style="edgeStyle=orthogonalEdgeStyle;rounded=0;orthogonalLoop=1;jettySize=auto;html=1;startArrow=none;startFill=0;endArrow=oval;endFill=1;" parent="1" source="dKKX5aDjw6KxdLSWSVDR-26" edge="1">
                    <mxGeometry relative="1" as="geometry">
                        <mxPoint x="592" y="430" as="targetPoint"/>
                    </mxGeometry>
                </mxCell>
                <mxCell id="dKKX5aDjw6KxdLSWSVDR-42" style="edgeStyle=orthogonalEdgeStyle;rounded=0;orthogonalLoop=1;jettySize=auto;html=1;exitX=0;exitY=0.25;exitDx=0;exitDy=0;startArrow=classic;startFill=1;endArrow=oval;endFill=1;" parent="1" source="dKKX5aDjw6KxdLSWSVDR-26" edge="1">
                    <mxGeometry relative="1" as="geometry">
                        <mxPoint x="242" y="300" as="targetPoint"/>
                    </mxGeometry>
                </mxCell>
                <mxCell id="dKKX5aDjw6KxdLSWSVDR-46" style="edgeStyle=orthogonalEdgeStyle;rounded=0;orthogonalLoop=1;jettySize=auto;html=1;exitX=0;exitY=0.75;exitDx=0;exitDy=0;startArrow=classic;startFill=1;endArrow=oval;endFill=1;" parent="1" source="dKKX5aDjw6KxdLSWSVDR-26" edge="1">
                    <mxGeometry relative="1" as="geometry">
                        <mxPoint x="262" y="270" as="targetPoint"/>
                    </mxGeometry>
                </mxCell>
                <mxCell id="dKKX5aDjw6KxdLSWSVDR-26" value="&lt;font style=&quot;font-size: 18px&quot;&gt;Button&lt;br&gt;Controller&lt;/font&gt;" style="rounded=0;whiteSpace=wrap;html=1;" parent="1" vertex="1">
                    <mxGeometry x="372" y="310" width="120" height="60" as="geometry"/>
                </mxCell>
                <mxCell id="dKKX5aDjw6KxdLSWSVDR-34" style="edgeStyle=orthogonalEdgeStyle;rounded=0;orthogonalLoop=1;jettySize=auto;html=1;startArrow=classic;startFill=1;endArrow=none;endFill=0;" parent="1" source="dKKX5aDjw6KxdLSWSVDR-27" edge="1">
                    <mxGeometry relative="1" as="geometry">
                        <mxPoint x="222" y="520" as="targetPoint"/>
                    </mxGeometry>
                </mxCell>
                <mxCell id="dKKX5aDjw6KxdLSWSVDR-36" style="edgeStyle=orthogonalEdgeStyle;rounded=0;orthogonalLoop=1;jettySize=auto;html=1;startArrow=none;startFill=0;endArrow=oval;endFill=1;" parent="1" source="dKKX5aDjw6KxdLSWSVDR-27" edge="1">
                    <mxGeometry relative="1" as="geometry">
                        <mxPoint x="592" y="430" as="targetPoint"/>
                    </mxGeometry>
                </mxCell>
                <mxCell id="dKKX5aDjw6KxdLSWSVDR-45" style="edgeStyle=orthogonalEdgeStyle;rounded=0;orthogonalLoop=1;jettySize=auto;html=1;exitX=0;exitY=0.25;exitDx=0;exitDy=0;startArrow=classic;startFill=1;endArrow=oval;endFill=1;" parent="1" edge="1">
                    <mxGeometry relative="1" as="geometry">
                        <mxPoint x="242" y="416" as="targetPoint"/>
                        <mxPoint x="372" y="501" as="sourcePoint"/>
                    </mxGeometry>
                </mxCell>
                <mxCell id="dKKX5aDjw6KxdLSWSVDR-48" style="edgeStyle=orthogonalEdgeStyle;rounded=0;orthogonalLoop=1;jettySize=auto;html=1;exitX=0;exitY=0.75;exitDx=0;exitDy=0;startArrow=classic;startFill=1;endArrow=oval;endFill=1;" parent="1" source="dKKX5aDjw6KxdLSWSVDR-27" edge="1">
                    <mxGeometry relative="1" as="geometry">
                        <mxPoint x="262" y="440" as="targetPoint"/>
                    </mxGeometry>
                </mxCell>
                <mxCell id="dKKX5aDjw6KxdLSWSVDR-27" value="&lt;font style=&quot;font-size: 18px&quot;&gt;Button&lt;br&gt;Controller&lt;/font&gt;" style="rounded=0;whiteSpace=wrap;html=1;" parent="1" vertex="1">
                    <mxGeometry x="372" y="490" width="120" height="60" as="geometry"/>
                </mxCell>
                <mxCell id="dKKX5aDjw6KxdLSWSVDR-30" value="" style="endArrow=none;html=1;" parent="1" edge="1">
                    <mxGeometry width="50" height="50" relative="1" as="geometry">
                        <mxPoint x="221.17000000000002" y="430" as="sourcePoint"/>
                        <mxPoint x="221.17000000000002" y="340" as="targetPoint"/>
                    </mxGeometry>
                </mxCell>
                <mxCell id="dKKX5aDjw6KxdLSWSVDR-33" value="" style="endArrow=oval;html=1;startArrow=none;startFill=0;endFill=1;" parent="1" edge="1">
                    <mxGeometry width="50" height="50" relative="1" as="geometry">
                        <mxPoint x="221.17000000000002" y="520" as="sourcePoint"/>
                        <mxPoint x="221.17000000000002" y="430" as="targetPoint"/>
                    </mxGeometry>
                </mxCell>
                <mxCell id="dKKX5aDjw6KxdLSWSVDR-51" value="&lt;font style=&quot;font-size: 25px&quot;&gt;FSM_LightStand&lt;br&gt;&lt;/font&gt;" style="text;html=1;strokeColor=none;fillColor=none;align=center;verticalAlign=middle;whiteSpace=wrap;rounded=0;" parent="1" vertex="1">
                    <mxGeometry x="484" y="50" width="205" height="40" as="geometry"/>
                </mxCell>
                <mxCell id="dKKX5aDjw6KxdLSWSVDR-57" style="edgeStyle=orthogonalEdgeStyle;rounded=0;orthogonalLoop=1;jettySize=auto;html=1;exitX=1;exitY=0;exitDx=0;exitDy=0;entryX=0;entryY=0;entryDx=0;entryDy=0;startArrow=none;startFill=0;endArrow=classic;endFill=1;" parent="1" source="dKKX5aDjw6KxdLSWSVDR-52" target="dKKX5aDjw6KxdLSWSVDR-53" edge="1">
                    <mxGeometry relative="1" as="geometry"/>
                </mxCell>
                <mxCell id="dKKX5aDjw6KxdLSWSVDR-52" value="LIGHT_0&lt;br&gt;3'b000" style="ellipse;whiteSpace=wrap;html=1;aspect=fixed;strokeWidth=1;" parent="1" vertex="1">
                    <mxGeometry x="233" y="620" width="80" height="80" as="geometry"/>
                </mxCell>
                <mxCell id="dKKX5aDjw6KxdLSWSVDR-58" style="edgeStyle=orthogonalEdgeStyle;rounded=0;orthogonalLoop=1;jettySize=auto;html=1;exitX=1;exitY=0;exitDx=0;exitDy=0;entryX=0;entryY=0;entryDx=0;entryDy=0;startArrow=none;startFill=0;endArrow=classic;endFill=1;" parent="1" source="dKKX5aDjw6KxdLSWSVDR-53" target="dKKX5aDjw6KxdLSWSVDR-54" edge="1">
                    <mxGeometry relative="1" as="geometry"/>
                </mxCell>
                <mxCell id="dKKX5aDjw6KxdLSWSVDR-64" style="edgeStyle=orthogonalEdgeStyle;rounded=0;orthogonalLoop=1;jettySize=auto;html=1;exitX=0;exitY=1;exitDx=0;exitDy=0;entryX=1;entryY=1;entryDx=0;entryDy=0;startArrow=none;startFill=0;endArrow=classic;endFill=1;" parent="1" source="dKKX5aDjw6KxdLSWSVDR-53" target="dKKX5aDjw6KxdLSWSVDR-52" edge="1">
                    <mxGeometry relative="1" as="geometry"/>
                </mxCell>
                <mxCell id="dKKX5aDjw6KxdLSWSVDR-65" style="edgeStyle=orthogonalEdgeStyle;rounded=0;orthogonalLoop=1;jettySize=auto;html=1;exitX=0.5;exitY=1;exitDx=0;exitDy=0;entryX=0.5;entryY=1;entryDx=0;entryDy=0;startArrow=none;startFill=0;endArrow=classic;endFill=1;" parent="1" source="dKKX5aDjw6KxdLSWSVDR-53" target="dKKX5aDjw6KxdLSWSVDR-52" edge="1">
                    <mxGeometry relative="1" as="geometry"/>
                </mxCell>
                <mxCell id="dKKX5aDjw6KxdLSWSVDR-53" value="LIGHT_1&lt;br&gt;3'b001" style="ellipse;whiteSpace=wrap;html=1;aspect=fixed;strokeWidth=1;" parent="1" vertex="1">
                    <mxGeometry x="393" y="620" width="80" height="80" as="geometry"/>
                </mxCell>
                <mxCell id="dKKX5aDjw6KxdLSWSVDR-59" style="edgeStyle=orthogonalEdgeStyle;rounded=0;orthogonalLoop=1;jettySize=auto;html=1;exitX=1;exitY=0;exitDx=0;exitDy=0;entryX=0;entryY=0;entryDx=0;entryDy=0;startArrow=none;startFill=0;endArrow=classic;endFill=1;" parent="1" source="dKKX5aDjw6KxdLSWSVDR-54" target="dKKX5aDjw6KxdLSWSVDR-55" edge="1">
                    <mxGeometry relative="1" as="geometry"/>
                </mxCell>
                <mxCell id="dKKX5aDjw6KxdLSWSVDR-63" style="edgeStyle=orthogonalEdgeStyle;rounded=0;orthogonalLoop=1;jettySize=auto;html=1;exitX=0;exitY=1;exitDx=0;exitDy=0;entryX=1;entryY=1;entryDx=0;entryDy=0;startArrow=none;startFill=0;endArrow=classic;endFill=1;" parent="1" source="dKKX5aDjw6KxdLSWSVDR-54" target="dKKX5aDjw6KxdLSWSVDR-53" edge="1">
                    <mxGeometry relative="1" as="geometry"/>
                </mxCell>
                <mxCell id="dKKX5aDjw6KxdLSWSVDR-71" style="edgeStyle=orthogonalEdgeStyle;rounded=0;orthogonalLoop=1;jettySize=auto;html=1;exitX=0.5;exitY=1;exitDx=0;exitDy=0;startArrow=none;startFill=0;endArrow=none;endFill=0;" parent="1" edge="1">
                    <mxGeometry relative="1" as="geometry">
                        <mxPoint x="273" y="720" as="targetPoint"/>
                        <mxPoint x="596" y="700" as="sourcePoint"/>
                        <Array as="points">
                            <mxPoint x="596" y="720"/>
                            <mxPoint x="273" y="720"/>
                        </Array>
                    </mxGeometry>
                </mxCell>
                <mxCell id="dKKX5aDjw6KxdLSWSVDR-54" value="LIGHT_2&lt;br&gt;3'b010" style="ellipse;whiteSpace=wrap;html=1;aspect=fixed;strokeWidth=1;" parent="1" vertex="1">
                    <mxGeometry x="553" y="620" width="80" height="80" as="geometry"/>
                </mxCell>
                <mxCell id="dKKX5aDjw6KxdLSWSVDR-60" style="edgeStyle=orthogonalEdgeStyle;rounded=0;orthogonalLoop=1;jettySize=auto;html=1;exitX=1;exitY=0;exitDx=0;exitDy=0;entryX=0;entryY=0;entryDx=0;entryDy=0;startArrow=none;startFill=0;endArrow=classic;endFill=1;" parent="1" source="dKKX5aDjw6KxdLSWSVDR-55" target="dKKX5aDjw6KxdLSWSVDR-56" edge="1">
                    <mxGeometry relative="1" as="geometry"/>
                </mxCell>
                <mxCell id="dKKX5aDjw6KxdLSWSVDR-62" style="edgeStyle=orthogonalEdgeStyle;rounded=0;orthogonalLoop=1;jettySize=auto;html=1;exitX=0;exitY=1;exitDx=0;exitDy=0;entryX=1;entryY=1;entryDx=0;entryDy=0;startArrow=none;startFill=0;endArrow=classic;endFill=1;" parent="1" source="dKKX5aDjw6KxdLSWSVDR-55" target="dKKX5aDjw6KxdLSWSVDR-54" edge="1">
                    <mxGeometry relative="1" as="geometry"/>
                </mxCell>
                <mxCell id="dKKX5aDjw6KxdLSWSVDR-72" style="edgeStyle=orthogonalEdgeStyle;rounded=0;orthogonalLoop=1;jettySize=auto;html=1;startArrow=none;startFill=0;endArrow=none;endFill=0;" parent="1" source="dKKX5aDjw6KxdLSWSVDR-55" edge="1">
                    <mxGeometry relative="1" as="geometry">
                        <mxPoint x="753" y="720" as="targetPoint"/>
                    </mxGeometry>
                </mxCell>
                <mxCell id="dKKX5aDjw6KxdLSWSVDR-55" value="LIGHT_3&lt;br&gt;3'b011" style="ellipse;whiteSpace=wrap;html=1;aspect=fixed;strokeWidth=1;" parent="1" vertex="1">
                    <mxGeometry x="713" y="620" width="80" height="80" as="geometry"/>
                </mxCell>
                <mxCell id="dKKX5aDjw6KxdLSWSVDR-61" style="edgeStyle=orthogonalEdgeStyle;rounded=0;orthogonalLoop=1;jettySize=auto;html=1;exitX=0;exitY=1;exitDx=0;exitDy=0;entryX=1;entryY=1;entryDx=0;entryDy=0;startArrow=none;startFill=0;endArrow=classic;endFill=1;" parent="1" source="dKKX5aDjw6KxdLSWSVDR-56" target="dKKX5aDjw6KxdLSWSVDR-55" edge="1">
                    <mxGeometry relative="1" as="geometry"/>
                </mxCell>
                <mxCell id="dKKX5aDjw6KxdLSWSVDR-73" style="edgeStyle=orthogonalEdgeStyle;rounded=0;orthogonalLoop=1;jettySize=auto;html=1;exitX=0.5;exitY=1;exitDx=0;exitDy=0;startArrow=none;startFill=0;endArrow=none;endFill=0;" parent="1" source="dKKX5aDjw6KxdLSWSVDR-56" edge="1">
                    <mxGeometry relative="1" as="geometry">
                        <mxPoint x="913.2" y="720" as="targetPoint"/>
                    </mxGeometry>
                </mxCell>
                <mxCell id="dKKX5aDjw6KxdLSWSVDR-56" value="LIGHT_4&lt;br&gt;3'b100" style="ellipse;whiteSpace=wrap;html=1;aspect=fixed;strokeWidth=1;" parent="1" vertex="1">
                    <mxGeometry x="873" y="620" width="80" height="80" as="geometry"/>
                </mxCell>
                <mxCell id="dKKX5aDjw6KxdLSWSVDR-74" value="" style="endArrow=none;html=1;" parent="1" edge="1">
                    <mxGeometry width="50" height="50" relative="1" as="geometry">
                        <mxPoint x="590" y="720" as="sourcePoint"/>
                        <mxPoint x="914" y="720" as="targetPoint"/>
                    </mxGeometry>
                </mxCell>
                <mxCell id="dKKX5aDjw6KxdLSWSVDR-75" value="&lt;font style=&quot;font-size: 25px&quot;&gt;[FSM_Light]&lt;/font&gt;" style="text;html=1;strokeColor=none;fillColor=none;align=center;verticalAlign=middle;whiteSpace=wrap;rounded=0;" parent="1" vertex="1">
                    <mxGeometry x="233" y="570" width="147" height="40" as="geometry"/>
                </mxCell>
                <mxCell id="2" value="Up BTN" style="text;html=1;strokeColor=none;fillColor=none;align=center;verticalAlign=middle;whiteSpace=wrap;rounded=0;" vertex="1" parent="1">
                    <mxGeometry x="322" y="610" width="60" height="30" as="geometry"/>
                </mxCell>
                <mxCell id="3" value="Up BTN" style="text;html=1;strokeColor=none;fillColor=none;align=center;verticalAlign=middle;whiteSpace=wrap;rounded=0;" vertex="1" parent="1">
                    <mxGeometry x="484" y="610" width="60" height="30" as="geometry"/>
                </mxCell>
                <mxCell id="4" value="Up BTN" style="text;html=1;strokeColor=none;fillColor=none;align=center;verticalAlign=middle;whiteSpace=wrap;rounded=0;" vertex="1" parent="1">
                    <mxGeometry x="808" y="610" width="60" height="30" as="geometry"/>
                </mxCell>
                <mxCell id="5" value="Up BTN" style="text;html=1;strokeColor=none;fillColor=none;align=center;verticalAlign=middle;whiteSpace=wrap;rounded=0;" vertex="1" parent="1">
                    <mxGeometry x="648" y="610" width="60" height="30" as="geometry"/>
                </mxCell>
                <mxCell id="7" value="Down BTN" style="text;html=1;strokeColor=none;fillColor=none;align=center;verticalAlign=middle;whiteSpace=wrap;rounded=0;" vertex="1" parent="1">
                    <mxGeometry x="322" y="670" width="60" height="30" as="geometry"/>
                </mxCell>
                <mxCell id="8" value="Down BTN" style="text;html=1;strokeColor=none;fillColor=none;align=center;verticalAlign=middle;whiteSpace=wrap;rounded=0;" vertex="1" parent="1">
                    <mxGeometry x="484" y="670" width="60" height="30" as="geometry"/>
                </mxCell>
                <mxCell id="9" value="Down BTN" style="text;html=1;strokeColor=none;fillColor=none;align=center;verticalAlign=middle;whiteSpace=wrap;rounded=0;" vertex="1" parent="1">
                    <mxGeometry x="647" y="670" width="60" height="30" as="geometry"/>
                </mxCell>
                <mxCell id="10" value="Down BTN" style="text;html=1;strokeColor=none;fillColor=none;align=center;verticalAlign=middle;whiteSpace=wrap;rounded=0;" vertex="1" parent="1">
                    <mxGeometry x="808" y="670" width="60" height="30" as="geometry"/>
                </mxCell>
                <mxCell id="11" value="Center BTN" style="text;html=1;strokeColor=none;fillColor=none;align=center;verticalAlign=middle;whiteSpace=wrap;rounded=0;" vertex="1" parent="1">
                    <mxGeometry x="553" y="728" width="60" height="30" as="geometry"/>
                </mxCell>
            </root>
        </mxGraphModel>
    </diagram>
</mxfile>